<svg width="40" height="40" viewBox="0 0 40 40" fill="none" xmlns="http://www.w3.org/2000/svg">
<rect width="40" height="40" rx="5" fill="#4CAF50"/>
<rect width="40" height="40" rx="5" fill="white" fill-opacity="0.88"/>
<path d="M30 16.5H10V18.5H30V16.5Z" fill="#D0F0B8"/>
<path d="M27 12.5H13C11.3451 12.5048 10.0048 13.8451 10 15.5V16.5H30V15.5C29.9952 13.8451 28.6549 12.5048 27 12.5ZM10 24.5C10.0049 26.1549 11.3451 27.4951 13 27.5H27C28.6549 27.4951 29.9951 26.1549 30 24.5V18.5H10V24.5Z" fill="#A7E37A"/>
<path d="M18 22.5H15C14.4477 22.5 14 22.0523 14 21.5C14 20.9477 14.4477 20.5 15 20.5H18C18.5523 20.5 19 20.9477 19 21.5C19 22.0523 18.5523 22.5 18 22.5Z" fill="#56CA00"/>
</svg>
