<svg width="40" height="40" viewBox="0 0 40 40" fill="none" xmlns="http://www.w3.org/2000/svg">
<rect width="40" height="40" rx="5" fill="#ED6C02"/>
<rect width="40" height="40" rx="5" fill="white" fill-opacity="0.88"/>
<path d="M24.4211 23.8684C25.6419 23.8684 26.6316 22.8788 26.6316 21.6579C26.6316 20.4371 25.6419 19.4474 24.4211 19.4474C23.2003 19.4474 22.2106 20.4371 22.2106 21.6579C22.2106 22.8788 23.2003 23.8684 24.4211 23.8684Z" fill="#FFB400"/>
<path d="M22.2105 21.6579C22.2105 21.1011 22.4234 20.5985 22.7632 20.2098C22.358 19.7462 21.7693 19.4474 21.1053 19.4474C19.8845 19.4474 18.8947 20.4371 18.8947 21.6579C18.8947 22.8787 19.8845 23.8684 21.1053 23.8684C21.7693 23.8684 22.358 23.5696 22.7632 23.1061C22.4234 22.7174 22.2105 22.2147 22.2105 21.6579Z" fill="#FFEAB8"/>
<path d="M27.7369 12.8158H12.2632C11.0424 12.8158 10.0526 13.8055 10.0526 15.0263V24.9737C10.0526 26.1945 11.0424 27.1842 12.2632 27.1842H27.7369C28.9577 27.1842 29.9474 26.1945 29.9474 24.9737V15.0263C29.9474 13.8055 28.9577 12.8158 27.7369 12.8158ZM24.4211 23.8684C23.7571 23.8684 23.1683 23.5696 22.7632 23.1061C22.358 23.5696 21.7693 23.8684 21.1053 23.8684C19.8845 23.8684 18.8947 22.8787 18.8947 21.6579C18.8947 20.4371 19.8845 19.4474 21.1053 19.4474C21.7693 19.4474 22.358 19.7462 22.7632 20.2097C23.1683 19.7462 23.7571 19.4474 24.4211 19.4474C25.6419 19.4474 26.6317 20.4371 26.6317 21.6579C26.6317 22.8787 25.6419 23.8684 24.4211 23.8684Z" fill="#FFCF5C"/>
</svg>
