<svg width="40" height="40" viewBox="0 0 40 40" fill="none" xmlns="http://www.w3.org/2000/svg">
<rect width="40" height="40" rx="5" fill="#F44336"/>
<rect width="40" height="40" rx="5" fill="white" fill-opacity="0.88"/>
<path d="M16.8616 27.9399C16.7845 28.4256 16.3657 28.7832 15.874 28.7832H12.0422C11.1955 28.785 10.5076 28.1001 10.5057 27.2533C10.5056 27.1678 10.5125 27.0824 10.5266 26.998L13.1164 10.5917C13.2637 9.67632 14.0525 9.00241 14.9797 8.99994H21.1936C23.7541 8.99994 25.6018 9.62006 26.6858 10.8427C27.7324 12.0486 28.1344 13.6846 27.7658 15.2382C27.7444 15.373 27.7228 15.5087 27.6907 15.6562C26.8674 19.874 24.0354 22.1132 19.5051 22.1132H17.7864L16.8616 27.9399Z" fill="#FFA2A5"/>
<path d="M28.4162 15.1044C28.2501 14.9185 28.0675 14.7487 27.8713 14.5964C27.8493 14.811 27.8163 15.0254 27.7658 15.2382C27.7444 15.373 27.7228 15.5087 27.6906 15.6562C26.8674 19.874 24.0354 22.1132 19.5051 22.1132H17.7864L16.8616 27.9399C16.7845 28.4257 16.3657 28.7832 15.8739 28.7832H14.7063L14.6242 29.3037C14.6123 29.3793 14.6062 29.4559 14.6062 29.5325C14.6059 30.3427 15.2624 30.9996 16.0725 31H19.3069C20.1725 31.0073 20.915 30.384 21.0579 29.5302L21.6985 25.499L21.7093 25.4443H22.0081C26.0403 25.4443 28.5589 23.4511 29.2933 19.6816C29.7476 18.1033 29.4219 16.403 28.4162 15.1044Z" fill="#FF4C51"/>
</svg>
