<svg width="40" height="40" viewBox="0 0 40 40" fill="none" xmlns="http://www.w3.org/2000/svg">
<rect width="40" height="40" rx="5" fill="#2196F3"/>
<rect width="40" height="40" rx="5" fill="white" fill-opacity="0.88"/>
<path d="M29.0022 13.9978H24.0022C23.4499 13.9978 23.0022 14.4455 23.0022 14.9978C23.0022 15.5501 23.4499 15.9978 24.0022 15.9978H26.5881L21.0022 21.5837L17.7092 18.2908C17.5217 18.1032 17.2674 17.9978 17.0022 17.9978C16.737 17.9978 16.4826 18.1032 16.2951 18.2908L10.2951 24.2908C10.0399 24.5429 9.93924 24.9123 10.0314 25.259C10.1235 25.6057 10.3943 25.8765 10.741 25.9686C11.0877 26.0607 11.4571 25.9601 11.7092 25.7048L17.0022 20.4119L20.2952 23.7049C20.4827 23.8924 20.737 23.9978 21.0022 23.9978C21.2674 23.9978 21.5218 23.8924 21.7093 23.7049L28.0022 17.4119V19.9978C28.0022 20.5501 28.4499 20.9978 29.0022 20.9978C29.5545 20.9978 30.0022 20.5501 30.0022 19.9978V14.9978C30.0022 14.7325 29.897 14.4781 29.7095 14.2905C29.5219 14.103 29.2675 13.9977 29.0022 13.9978Z" fill="#16B1FF"/>
</svg>
