<svg width="40" height="40" viewBox="0 0 40 40" fill="none" xmlns="http://www.w3.org/2000/svg">
<rect width="40" height="40" rx="5" fill="#9155FD"/>
<rect width="40" height="40" rx="5" fill="white" fill-opacity="0.88"/>
<path d="M10 13.3333C10 14.5606 10.9949 15.5556 12.2222 15.5556H12.2222H27.7778C29.0051 15.5556 30 16.5505 30 17.7778V26.6667C30 27.894 29.0051 28.8889 27.7778 28.8889H12.2222C10.9949 28.8889 10 27.894 10 26.6667V13.3333Z" fill="#E0CFFE"/>
<path d="M12.2222 15.5555H25.5555V13.1111C25.5555 12.0065 24.6602 11.1111 23.5555 11.1111H12C10.8954 11.1111 10 12.0065 10 13.1111V13.3333C10 14.5606 10.9949 15.5555 12.2222 15.5555Z" fill="#B992FE"/>
<path d="M30 25.0001H27.1184C25.6577 25.0266 24.3794 24.0232 24.0582 22.598C23.7306 20.9711 24.784 19.3867 26.4108 19.0592C26.6048 19.0201 26.8021 19.0004 27 19.0001H30V25.0001Z" fill="#9155FD"/>
</svg>
