<svg width="30" height="24" viewBox="0 0 30 24" fill="none" xmlns="http://www.w3.org/2000/svg">
<path fill-rule="evenodd" clip-rule="evenodd" d="M1.47602 0.150646L6.7986 3.43727C7.08419 3.61362 7.25806 3.9254 7.25806 4.26116V19.2757C7.25806 19.6162 7.07929 19.9317 6.78724 20.1065L1.46466 23.2929C1.00603 23.5675 0.411763 23.4181 0.137322 22.9593C0.0474582 22.809 0 22.6372 0 22.4621V0.97453C0 0.439821 0.433273 0.00635338 0.967742 0.00635338C1.14727 0.00635338 1.32325 0.0563131 1.47602 0.150646Z" fill="#9155FD"/>
<path opacity="0.077704" fill-rule="evenodd" clip-rule="evenodd" d="M0 7.83179L7.25806 11.9955V16.0774L0 7.83179Z" fill="black"/>
<path opacity="0.077704" fill-rule="evenodd" clip-rule="evenodd" d="M0 7.83179L7.25806 11.8895V14.383L0 7.83179Z" fill="black"/>
<path fill-rule="evenodd" clip-rule="evenodd" d="M28.5252 0.146833L23.2026 3.42245C22.9163 3.59863 22.7419 3.91082 22.7419 4.24709V19.2757C22.7419 19.6162 22.9207 19.9317 23.2128 20.1065L28.5353 23.2929C28.994 23.5675 29.5882 23.4181 29.8627 22.9593C29.9525 22.809 30 22.6372 30 22.4621V0.971479C30 0.436769 29.5667 0.00330162 29.0323 0.00330162C28.8532 0.00330162 28.6777 0.0529876 28.5252 0.146833Z" fill="#9155FD"/>
<path opacity="0.077704" fill-rule="evenodd" clip-rule="evenodd" d="M30 7.83179L22.7419 11.9867V16.2006L30 7.83179Z" fill="black"/>
<path opacity="0.077704" fill-rule="evenodd" clip-rule="evenodd" d="M30 7.83179L22.7419 11.8859V14.5063L30 7.83179Z" fill="black"/>
<path fill-rule="evenodd" clip-rule="evenodd" d="M1.47345 0.142708L15 8.4369V16.4244L0 7.82958V0.968177C0 0.433467 0.433273 0 0.967742 0C1.14624 0 1.32126 0.04939 1.47345 0.142708Z" fill="#9155FD"/>
<path fill-rule="evenodd" clip-rule="evenodd" d="M1.47345 0.142708L15 8.4369V16.4244L0 7.82958V0.968177C0 0.433467 0.433273 0 0.967742 0C1.14624 0 1.32126 0.04939 1.47345 0.142708Z" fill="white" fill-opacity="0.15"/>
<path fill-rule="evenodd" clip-rule="evenodd" d="M28.5266 0.142708L15 8.4369V16.4244L30 7.82958V0.968177C30 0.433467 29.5667 0 29.0323 0C28.8538 0 28.6787 0.04939 28.5266 0.142708Z" fill="#9155FD"/>
<path fill-rule="evenodd" clip-rule="evenodd" d="M28.5266 0.142708L15 8.4369V16.4244L30 7.82958V0.968177C30 0.433467 29.5667 0 29.0323 0C28.8538 0 28.6787 0.04939 28.5266 0.142708Z" fill="white" fill-opacity="0.3"/>
</svg>
