<svg width="22" height="22" viewBox="0 0 22 22" fill="none" xmlns="http://www.w3.org/2000/svg">
<mask id="mask0_1_5175" style="mask-type:alpha" maskUnits="userSpaceOnUse" x="0" y="0" width="22" height="22">
<path d="M19.5677 0H6.52257C5.32677 0 4.34838 0.975 4.34838 2.16667V15.1667C4.34838 16.3583 5.32677 17.3333 6.52257 17.3333H19.5677C20.7635 17.3333 21.7419 16.3583 21.7419 15.1667V2.16667C21.7419 0.975 20.7635 0 19.5677 0ZM10.3274 8.125C10.3274 9.02417 9.59905 9.75 8.69676 9.75H7.60966V11.9167H5.97902V5.41667H8.69676C9.59905 5.41667 10.3274 6.1425 10.3274 7.04167V8.125ZM15.7629 10.2917C15.7629 11.1908 15.0345 11.9167 14.1322 11.9167H11.4145V5.41667H14.1322C15.0345 5.41667 15.7629 6.1425 15.7629 7.04167V10.2917ZM20.1113 7.04167H18.4806V8.125H20.1113V9.75H18.4806V11.9167H16.85V5.41667H20.1113V7.04167ZM7.60966 8.125H8.69676V7.04167H7.60966V8.125ZM2.17419 4.33333H0V19.5C0 20.6917 0.978385 21.6667 2.17419 21.6667H17.3935V19.5H2.17419V4.33333ZM13.0451 10.2917H14.1322V7.04167H13.0451V10.2917Z" fill="white"/>
</mask>
<g mask="url(#mask0_1_5175)">
<path d="M23.9161 -2.16675H-2.17419V23.8333H23.9161V-2.16675Z" fill="#FF4C51"/>
</g>
</svg>
